<svg xmlns="http://www.w3.org/2000/svg" height="16" width="16" viewBox="0 0 512 512"><!--!Font Awesome Pro 6.5.0 by @fontawesome - https://fontawesome.com License - https://fontawesome.com/license (Commercial License) Copyright 2023 Fonticons, Inc.--><path d="M105.8 288h300.4l-46.2 43.7c-9.8 9.3-10 24.8-.5 34.4l10.8 10.8c9.4 9.4 24.6 9.4 33.9 0l98.3-98.3c12.5-12.5 12.5-32.8 0-45.3l-98.3-98.3c-9.4-9.4-24.6-9.4-33.9 0l-10.8 10.8c-9.6 9.6-9.3 25.1 .5 34.4L406.2 224H105.8l46.2-43.7c9.8-9.3 10-24.8 .5-34.4l-10.8-10.8c-9.4-9.4-24.6-9.4-33.9 0L9.4 233.4c-12.5 12.5-12.5 32.8 0 45.3l98.3 98.3c9.4 9.4 24.6 9.4 33.9 0l10.8-10.8c9.6-9.6 9.3-25.1-.5-34.4L105.8 288z"/></svg>
