<svg xmlns="http://www.w3.org/2000/svg" height="1em" viewBox="0 0 448 512"><!--! Font Awesome Pro 6.4.2 by @fontawesome - https://fontawesome.com License - https://fontawesome.com/license (Commercial License) Copyright 2023 Fonticons, Inc. --><path d="M436 124H12c-6.627 0-12-5.373-12-12V80c0-6.627 5.373-12 12-12h424c6.627 0 12 5.373 12 12v32c0 6.627-5.373 12-12 12zm0 160H12c-6.627 0-12-5.373-12-12v-32c0-6.627 5.373-12 12-12h424c6.627 0 12 5.373 12 12v32c0 6.627-5.373 12-12 12zm0 160H12c-6.627 0-12-5.373-12-12v-32c0-6.627 5.373-12 12-12h424c6.627 0 12 5.373 12 12v32c0 6.627-5.373 12-12 12z"/></svg>
